<svg xmlns="http://www.w3.org/2000/svg"  version="1.1" x="0px" y="0px" viewBox="0 0 100 100" style="enable-background:new 0 0 100 100;" xml:space="preserve"><path d="M50,11.1C39.7,21,27.1,27.4,14.1,30C15.6,55.7,29.8,77.7,50,88.9C70.2,77.7,84.4,55.7,85.9,30C72.9,27.4,60.3,21,50,11.1z   M50,84.3C32.5,73.7,20.6,54.5,18.4,33.2C30,30.2,40.8,24.5,50,16.5c9.2,8,20,13.7,31.6,16.7C79.4,54.5,67.5,73.7,50,84.3z"></path><polygon points="58.5,41.5 47.2,52.8 41.5,47.2 38.7,50 44.3,55.7 44.3,55.7 47.2,58.5 47.2,58.5 47.2,58.5 50,55.7 50,55.7   61.3,44.3 "></polygon></svg>
