<svg xmlns="http://www.w3.org/2000/svg" data-name="Layer 1" viewBox="0 0 100 100" x="0px" y="0px"><title>all</title><g data-name="Go to Web - Orange"><path d="M4.29,12.46c1.66,0,3.29,0,4.93,0a36.92,36.92,0,0,0,9.35-1.29A43.35,43.35,0,0,0,27,7.68c2.75-1.43,5.46-2.94,8.24-4.29A33.28,33.28,0,0,1,47.86.07,33.92,33.92,0,0,1,65.16,3.55c2.57,1.26,5.08,2.64,7.61,4a42.67,42.67,0,0,0,9.63,3.88,37.39,37.39,0,0,0,7.8,1c1.7,0.05,3.41.07,5.11,0.1h0.4c0,0.17,0,.3,0,0.43-0.06,3.42,0,6.84-.22,10.26-0.16,3.2-.46,6.41-0.81,9.6a100.12,100.12,0,0,1-3,15.34,89,89,0,0,1-9.75,23A75.8,75.8,0,0,1,60.38,94.43a50.66,50.66,0,0,1-10.06,5.52,1,1,0,0,1-.69,0A55.55,55.55,0,0,1,36.52,92.1a75.28,75.28,0,0,1-14-14.38A84.74,84.74,0,0,1,11.27,57.26a100.35,100.35,0,0,1-5-17.83A100.57,100.57,0,0,1,4.63,25.84c-0.2-4.34-.25-8.69-0.37-13C4.26,12.73,4.27,12.67,4.29,12.46Zm83.06,8.16-2.13-.25a42,42,0,0,1-13.59-4.13c-2.79-1.38-5.51-2.89-8.27-4.33A28.35,28.35,0,0,0,51.54,8.36a25.94,25.94,0,0,0-8.78,1,41.29,41.29,0,0,0-7.25,3.17c-2.72,1.43-5.42,2.89-8.19,4.22a40.23,40.23,0,0,1-12.58,3.64l-2.06.24c0,0.17,0,.31,0,0.45,0.12,2.07.19,4.15,0.36,6.22a105.8,105.8,0,0,0,1.89,13,88.63,88.63,0,0,0,5.49,17.37,73.67,73.67,0,0,0,12.4,19.55A61.15,61.15,0,0,0,49.6,90.77a0.73,0.73,0,0,0,.79,0A58.45,58.45,0,0,0,64.13,80.54,70.41,70.41,0,0,0,76.64,63.8a88.8,88.8,0,0,0,9.75-31.31c0.32-2.44.52-4.9,0.73-7.35C87.24,23.65,87.27,22.16,87.35,20.62Z"></path><path d="M45.87,20.8h8.26V58.14H45.87V20.8Z"></path><rect x="45.87" y="64.95" width="8.26" height="8.26" rx="4.1" ry="4.1"></rect></g></svg>