<svg xmlns="http://www.w3.org/2000/svg"  version="1.1" x="0px" y="0px" viewBox="0 0 100 100" enable-background="new 0 0 100 100" xml:space="preserve"><path d="M13.754,84.186h72.493L50,21.404L13.754,84.186 M3.081,93.428C1.38,93.428,0,92.049,0,90.348  c0-0.541,0.143-1.072,0.413-1.541L47.332,7.54C47.883,6.587,48.899,6,50,6c1.102,0,2.118,0.587,2.669,1.54l46.919,81.267  c0.271,0.469,0.412,1,0.412,1.541c0,1.701-1.379,3.08-3.081,3.08H3.081z"></path><path d="M52.195,65.566c-0.103,1.137-1.055,2.008-2.195,2.008c-1.141,0-2.094-0.871-2.195-2.008L45.61,40.968  c-0.012-0.13-0.018-0.261-0.018-0.392c0-2.435,1.974-4.408,4.407-4.408c2.435,0,4.408,1.973,4.408,4.408  c0,0.131-0.007,0.262-0.019,0.392L52.195,65.566"></path><circle cx="50" cy="74.186" r="4.408"></circle></svg>
