<svg xmlns="http://www.w3.org/2000/svg"  version="1.1" x="0px" y="0px" viewBox="2 -2 100 100" style="enable-background:new 2 -2 100 100;" xml:space="preserve"><g><path d="M88.7,23.1L68.1,2.6c-0.9-0.9-2-1.3-3.2-1.3H29.4c-3.4,0-6.3,2.9-6.3,6.3v71.7c0,3.4,2.9,6.3,6.3,6.3h54.3   c3.4,0,6.3-2.9,6.3-6.3v-53C90,25,89.4,24,88.7,23.1z M68.3,10.5l12.4,12.4H69.2c-0.5,0-0.9-0.4-0.9-0.9   C68.3,22,68.3,10.5,68.3,10.5z M84.6,79.4c-0.2,0.5-0.5,0.9-1.1,0.9H29.4c-0.5,0-0.9-0.4-0.9-0.9V7.6c0-0.5,0.4-0.9,0.9-0.9h33.7   V22c0,3.4,2.9,6.3,6.3,6.3h15.2V79.4z"></path><path d="M74.6,89.2H24c-2.5,0-4.5-2-4.5-4.5V16.6c0-1.4-1.3-2.7-2.7-2.7c-1.4,0-2.7,1.3-2.7,2.7v68.2c0,5.4,4.5,9.9,9.9,9.9h50.8   c1.4,0,2.7-1.3,2.7-2.7C77.4,90.5,76.2,89.2,74.6,89.2z"></path><path d="M36.7,46.7h26.6c1.5,0,2.7-1.2,2.7-2.7s-1.2-2.7-2.7-2.7H36.7c-1.5,0-2.7,1.2-2.7,2.7S35.2,46.7,36.7,46.7z"></path><path d="M34,55.4c0,1.5,1.2,2.7,2.7,2.7h38.6c1.5,0,2.7-1.2,2.7-2.7s-1.2-2.7-2.7-2.7H36.7C35.2,52.7,34,53.9,34,55.4z"></path><path d="M75.3,64.1H36.7c-1.5,0-2.7,1.2-2.7,2.7s1.2,2.7,2.7,2.7h38.6c1.5,0,2.7-1.2,2.7-2.7C78,65.3,76.8,64.1,75.3,64.1z"></path></g></svg>
