<svg xmlns="http://www.w3.org/2000/svg" viewBox="0 0 46 46">
    <g >
        <g id="Group_780">
            <path id="Path_550" d="M44.172 1.75H3.828A2.33 2.33 0 0 0 1.5 4.078v40.344a2.33 2.33 0 0 0 2.328 2.328h40.344a2.33 2.33 0 0 0 2.328-2.328V4.078a2.33 2.33 0 0 0-2.328-2.328zM3.828 3.3h40.344a.776.776 0 0 1 .776.776v32.535H3.052V4.078a.776.776 0 0 1 .776-.778zm40.344 41.9H3.828a.776.776 0 0 1-.776-.776v-6.26h41.9v6.26a.776.776 0 0 1-.78.776z" class="cls-1" data-name="Path 550" transform="translate(-1.5 -1.75)"/>
            <path id="Path_551" d="M5.7 16.077a.7.7 0 0 0 .992 0l1.152-1.152a5.805 5.805 0 0 0 7.253-.07l1.22 1.22a.7.7 0 1 0 .992-.991l-1.225-1.225a5.8 5.8 0 0 0-.017-7.279l1.24-1.24a.7.7 0 0 0-.991-.991L15.08 5.594a5.81 5.81 0 0 0-7.213-.07L6.7 4.351a.7.7 0 0 0-.992.992L6.861 6.5a5.8 5.8 0 0 0-.015 7.449l-1.14 1.138a.7.7 0 0 0-.006.99zm1.2-5.844a4.485 4.485 0 0 1 .95-2.744l.97.97a.7.7 0 1 0 .992-.991l-.956-.956a4.475 4.475 0 0 1 5.232.07l-.886.886a.7.7 0 0 0 .992.991l.886-.886a4.461 4.461 0 0 1 .015 5.3l-.9-.9a.7.7 0 0 0-.991.991l.905.905a4.466 4.466 0 0 1-5.273.07l.975-.975a.7.7 0 0 0-.991-.991l-.986.986a4.483 4.483 0 0 1-.934-2.726z" class="cls-1" data-name="Path 551" transform="translate(1.656 .325)"/>
            <path id="Path_552" d="M17.714 16.077a.7.7 0 0 0 .992 0l1.152-1.152a5.805 5.805 0 0 0 7.253-.07l1.22 1.22a.7.7 0 0 0 .992-.991L28.1 13.86a5.8 5.8 0 0 0-.017-7.279l1.239-1.239a.7.7 0 0 0-.991-.991l-1.242 1.242a5.81 5.81 0 0 0-7.213-.07L18.7 4.352a.7.7 0 0 0-.991.991l1.16 1.157a5.8 5.8 0 0 0-.017 7.449l-1.139 1.139a.7.7 0 0 0 .001.989zm1.2-5.844a4.485 4.485 0 0 1 .95-2.744l.97.97a.7.7 0 0 0 .992-.991l-.956-.956a4.474 4.474 0 0 1 5.232.07l-.886.886a.7.7 0 0 0 .992.991l.886-.886a4.461 4.461 0 0 1 .015 5.3l-.9-.9a.7.7 0 1 0-.991.991l.905.905a4.466 4.466 0 0 1-5.273.07l.975-.975a.7.7 0 0 0-.991-.991l-.986.986a4.49 4.49 0 0 1-.937-2.726z" class="cls-1" data-name="Path 552" transform="translate(8.467 .325)"/>
            <path id="Path_553" d="M5.7 26.112a.7.7 0 0 0 .992 0l1.152-1.152a5.805 5.805 0 0 0 7.253-.07l1.222 1.222a.7.7 0 0 0 .992-.991l-1.22-1.221a5.8 5.8 0 0 0-.017-7.279l1.241-1.241a.7.7 0 0 0-.991-.991l-1.241 1.241a5.81 5.81 0 0 0-7.213-.07L6.7 14.387a.7.7 0 1 0-.991.991l1.156 1.156a5.8 5.8 0 0 0-.018 7.449L5.7 25.123a.7.7 0 0 0 0 .989zm1.2-5.844a4.485 4.485 0 0 1 .95-2.744l.97.97a.7.7 0 1 0 .992-.991l-.956-.956a4.475 4.475 0 0 1 5.232.07l-.888.883a.7.7 0 0 0 .992.991l.886-.886a4.461 4.461 0 0 1 .015 5.3l-.9-.9a.7.7 0 0 0-.991.991l.905.905a4.466 4.466 0 0 1-5.271.069l.978-.97a.7.7 0 1 0-.991-.991l-.986.986a4.472 4.472 0 0 1-.937-2.727z" class="cls-1" data-name="Path 553" transform="translate(1.656 5.546)"/>
            <path id="Path_554" d="M17.714 26.112a.7.7 0 0 0 .992 0l1.152-1.152a5.805 5.805 0 0 0 7.253-.07l1.222 1.222a.7.7 0 0 0 .992-.991L28.1 23.9a5.8 5.8 0 0 0-.017-7.279l1.241-1.241a.7.7 0 0 0-.991-.991l-1.241 1.241a5.81 5.81 0 0 0-7.213-.07l-1.171-1.171a.7.7 0 0 0-.991.991l1.156 1.156a5.8 5.8 0 0 0-.017 7.449l-1.141 1.141a.7.7 0 0 0-.001.986zm1.2-5.844a4.485 4.485 0 0 1 .95-2.744l.97.97a.7.7 0 1 0 .992-.991l-.956-.956a4.474 4.474 0 0 1 5.232.07l-.886.886a.7.7 0 0 0 .992.991l.886-.886a4.461 4.461 0 0 1 .015 5.3l-.9-.9a.7.7 0 0 0-.991.991l.905.905a4.466 4.466 0 0 1-5.271.069l.971-.973a.7.7 0 1 0-.991-.991l-.986.986a4.472 4.472 0 0 1-.936-2.727z" class="cls-1" data-name="Path 554" transform="translate(8.468 5.545)"/>
            <g id="Path_555">
                <path d="M5.949 29.181c-1.103 0-2-.897-2-2s.897-2 2-2 2 .897 2 2-.897 2-2 2zm0-2.163a.163.163 0 1 0 0 .326.163.163 0 0 0 0-.326z" class="cls-3" transform="translate(1.551 12.819)"/>
                <path d="M5.949 25.681c-.827 0-1.5.673-1.5 1.5s.673 1.5 1.5 1.5 1.5-.673 1.5-1.5-.673-1.5-1.5-1.5m0 2.163a.663.663 0 1 1 0-1.327.663.663 0 0 1 0 1.327m0-3.163c1.378 0 2.5 1.121 2.5 2.5 0 1.378-1.122 2.5-2.5 2.5a2.503 2.503 0 0 1-2.5-2.5c0-1.379 1.121-2.5 2.5-2.5z" class="cls-4" transform="translate(1.551 12.819)"/>
            </g>
            <g id="Path_556">
                <path d="M12.172 29.181c-1.103 0-2-.897-2-2s.897-2 2-2 2 .897 2 2-.897 2-2 2zm0-2.163a.163.163 0 1 0 0 .326.163.163 0 0 0 0-.326z" class="cls-3" transform="translate(5.554 12.819)"/>
                <path d="M12.172 25.681c-.827 0-1.5.673-1.5 1.5s.673 1.5 1.5 1.5 1.5-.673 1.5-1.5-.672-1.5-1.5-1.5m0 2.163a.663.663 0 1 1 0-1.327.663.663 0 0 1 0 1.327m0-3.163c1.378 0 2.5 1.121 2.5 2.5 0 1.378-1.122 2.5-2.5 2.5a2.503 2.503 0 0 1-2.5-2.5c0-1.379 1.121-2.5 2.5-2.5z" class="cls-4" transform="translate(5.554 12.819)"/>
            </g>
            <g id="Path_557">
                <path d="M19.194 29.181c-1.103 0-2-.897-2-2s.897-2 2-2 2 .897 2 2-.897 2-2 2zm0-2.163a.163.163 0 1 0 0 .326.163.163 0 0 0 0-.326z" class="cls-3" transform="translate(8.408 12.819)"/>
                <path d="M19.194 25.681c-.827 0-1.5.673-1.5 1.5s.673 1.5 1.5 1.5 1.5-.673 1.5-1.5-.672-1.5-1.5-1.5m0 2.163a.663.663 0 1 1 0-1.327.663.663 0 0 1 0 1.327m0-3.163c1.379 0 2.5 1.121 2.5 2.5 0 1.378-1.121 2.5-2.5 2.5a2.503 2.503 0 0 1-2.5-2.5c0-1.379 1.122-2.5 2.5-2.5z" class="cls-4" transform="translate(8.408 12.819)"/>
            </g>
            <g id="Path_558">
                <path d="M25.418 29.181c-1.103 0-2-.897-2-2s.897-2 2-2 2 .897 2 2-.897 2-2 2zm0-2.163a.163.163 0 1 0 0 .326.163.163 0 0 0 0-.326z" class="cls-3" transform="translate(12.436 12.819)"/>
                <path d="M25.418 25.681c-.827 0-1.5.673-1.5 1.5s.673 1.5 1.5 1.5 1.5-.673 1.5-1.5-.673-1.5-1.5-1.5m0 2.163a.663.663 0 1 1 0-1.327.663.663 0 0 1 0 1.327m0-3.163c1.378 0 2.5 1.121 2.5 2.5 0 1.378-1.122 2.5-2.5 2.5a2.503 2.503 0 0 1-2.5-2.5c0-1.379 1.121-2.5 2.5-2.5z" class="cls-4" transform="translate(12.436 12.819)"/>
            </g>
        </g>
    </g>
</svg>
