<?xml version="1.0" encoding="utf-8"?>
<!-- Generator: Adobe Illustrator 21.1.0, SVG Export Plug-In . SVG Version: 6.00 Build 0)  -->
<svg version="1.1" id="Layer_1" xmlns="http://www.w3.org/2000/svg"  x="0px" y="0px"
	 viewBox="0 0 436.7 496.5" style="enable-background:new 0 0 436.7 496.5;" xml:space="preserve">
<style type="text/css">
	.st0{fill:#020203;}
	.st1{fill:#020203;stroke:#020203;stroke-width:2;stroke-miterlimit:10;}
	.st2{fill:none;stroke:#000000;stroke-miterlimit:10;}
	.st3{fill:#020203;stroke:#000000;stroke-miterlimit:10;}
</style>
<g id="Layer_1_1_">
	<g>
		<g>
			<path class="st0" d="M214.5,306.5c-85.9,0-213.7-10.3-213.7-38.7S128.6,229,214.5,229s213.7,10.3,213.7,38.7
				C428.7,295.8,300.8,306.5,214.5,306.5z M214.5,237.9C80,237.9,10,257.1,10,267.3c0,10.3,70.5,29.4,204.4,29.4
				c134.4,0,204.4-19.1,204.4-29.4C419.3,257.1,348.9,237.9,214.5,237.9z"/>
		</g>
		<g>
			<path class="st0" d="M329.3,451.7l-4.2-8.4c105.9-50.4,94.3-174.1,93.8-175l9.3-0.9C428.7,268.3,440.8,398.5,329.3,451.7z"/>
		</g>
		<g>
			<path class="st0" d="M215.4,474.1c-44.8,0-83.5-7.5-115.3-22.9l4.2-8.4c30.3,14.5,67.7,21.9,111.1,21.9c42.9,0,79.8-7,109.7-21.5
				l4.2,8.4C298,466.1,259.7,474.1,215.4,474.1z"/>
		</g>
		<g>
			<path class="st0" d="M215.9,496c-46.2,0-85.9-7.5-118.5-22.9l3.7-8.4c31.3,14.5,69.5,21.9,114.3,21.9c44.3,0,82.1-7,113.4-21.5
				l3.7,8.4C301.3,488.5,261.6,496,215.9,496z"/>
		</g>
		<g>
			<path class="st0" d="M100.1,451.2c-1.4-0.9-3.3-1.4-4.7-2.3C-10.5,394.3,0.7,268.7,0.7,267.3l9.3,0.9
				c0,1.4-10.3,120.4,89.6,172.2c1.4,0.9,2.8,1.4,4.7,2.3L100.1,451.2z"/>
		</g>
		<g>
			<rect x="96.4" y="445.1" class="st0" width="9.3" height="28"/>
		</g>
		<g>
			<rect x="324.1" y="445.1" class="st0" width="9.3" height="28"/>
		</g>
		<g>
			<g>
				<path class="st1" d="M101,469.4"/>
			</g>
		</g>
	</g>
</g>
<g id="Layer_2">
	<g>
		<path class="st2" d="M408.6,58.2c-0.5-9.8-9.8-25.7-21-30.3c0-0.9,0.5-1.9,0.9-2.8C393.7,8.3,407.7-2,420.3,1.8
			c12.6,3.7,18.7,20.5,13.5,36.9c-2.3,7.5-6.5,14-11.7,18.2c-0.5,0-0.9-0.5-1.4-0.5C417,55,412.3,55.9,408.6,58.2z"/>
		<path class="st2" d="M407.2,59.2c-0.9,0.9-1.9,1.9-2.8,3.3c0,0,0,0,0,0.5c-0.9,1.4-1.4,2.8-1.9,4.2c-0.5,2.3-0.9,4.2-0.5,6.5l0,0
			c-9.3,10.3-26.1,9.3-37.8-2.3s-14-29.4-5.1-39.7c7-7.9,18.7-9.3,29.4-4.2"/>
		<path class="st2" d="M404.4,62.4C404.4,62.4,404.4,62.9,404.4,62.4L404.4,62.4z"/>
		<path class="st2" d="M408.6,58.2c-0.5,0.5-0.9,0.9-1.4,0.9"/>
		<path class="st2" d="M388.1,27.9"/>
		<path class="st3" d="M408.1,62.4c5.1,0,9.8-2.3,14-6.1c7,2.8,10.7,11.2,8.4,18.7c-2.3,8.4-10.7,13.1-18.7,10.7
			c-5.6-1.9-9.8-7-10.3-13.1c1.9-2.3,3.3-5.1,4.2-7.9C407.2,64.8,407.7,63.8,408.1,62.4z"/>
		<path class="st3" d="M408.1,62.4c-0.5,1.4-0.9,2.3-2.3,2.8c0.5-0.9,0.5-1.9,0.9-2.8C407.2,62.9,407.7,62.9,408.1,62.4z"/>
		<path class="st3" d="M408.1,62.4c0.5-1.4,0.5-2.8,0.5-4.7c3.7-2.3,7.9-3.3,12.1-1.9c0.5,0,0.9,0.5,1.4,0.5
			C417.9,60.6,413.3,62.4,408.1,62.4z"/>
		<path class="st3" d="M408.1,62.4c-0.5,0-0.9,0-1.4,0c0-0.9,0.5-2.3,0.5-3.3c0.5-0.5,0.9-0.9,1.4-0.9
			C409.1,60.1,408.6,61.5,408.1,62.4z"/>
		<path class="st3" d="M404.4,62.9c0,0.9,0.9,3.3,1.9,2.8c-0.9,2.8-2.3,5.6-4.2,7.9c0-1.9,0-4.2,0.5-6.5
			C403,65.2,403.5,64.3,404.4,62.9z"/>
		<path class="st3" d="M406.3,65.7c-0.5,0.5-1.9-1.9-1.9-2.8c0,0,0,0,0-0.5c0.9,0,1.4,0,2.3,0C406.7,63.8,406.3,64.8,406.3,65.7z"/>
		<path class="st3" d="M404.4,62.4c0.9-0.9,1.9-2.3,2.8-3.3c0,0.9,0,2.3-0.5,3.3C406.3,62.4,405.3,62.4,404.4,62.4z"/>
	</g>
	<g>
		<path class="st2" d="M347.9,83.9c2.8,0,5.6,0,7.9,0"/>
		<path class="st2" d="M314.3,86.7c4.2-0.5,8.4-1.4,12.6-1.4"/>
		<path class="st2" d="M269.5,97.9c8.4-2.8,16.3-5.1,24.7-7.5"/>
		<path class="st2" d="M230.8,115.2c6.1-3.3,11.7-6.1,18.2-8.9"/>
		<path class="st2" d="M196.2,138.5c5.1-4.2,10.3-7.9,15.4-11.7"/>
		<path class="st2" d="M165.9,168.4c4.7-5.1,9.3-10.7,14-15.4"/>
		<path class="st2" d="M142.6,202.9c2.8-5.6,6.1-10.7,9.3-15.9"/>
		<path class="st2" d="M126.7,247.7c1.9-8.4,4.2-16.3,7-24.3"/>
		<path class="st2" d="M122.5,284.1c0-4.7,0-9.8,0.5-14.5"/>
	</g>
</g>
</svg>
