<svg preserveAspectRatio="xMinYMin meet" a6c16a98-3ceb-41f4-947e-0f50b04728c8" data-name="Layer 1" xmlns="http://www.w3.org/2000/svg" viewBox="-50 0 469.41 143.69"><title>report - departments </title><g id="be6594fe-f8e1-4417-876a-1c592461f388" data-name="Group 664"><path id="ad07bc1a-48c5-447b-9736-ccb9e3e2792a" data-name="Path 410" d="M449.56,247.15a54.36,54.36,0,1,1,25.68-38.09A54.35,54.35,0,0,1,449.56,247.15Z" transform="translate(-124 -128.72)" style="fill:none;stroke:#a4dbeb;stroke-width:35.0000000525065px;stroke-dasharray:117,1125"/><path id="acdd2fac-fce8-47f2-9db7-b2e6158066bb" data-name="Path 4" d="M421.71,146.26a54.18,54.18,0,0,1,26.9,101.21" transform="translate(-124 -128.72)" style="fill:none;stroke:#008b87;stroke-width:35px"/><path id="b2bc3d92-86a8-4899-8ab0-b04242803616" data-name="Path 409" d="M367.26,198.67A54.34,54.34,0,1,1,385.21,241,54.33,54.33,0,0,1,367.26,198.67Z" transform="translate(-124 -128.72)" style="fill:none;stroke:#bfbfbf;stroke-width:35.00000047119px;stroke-dasharray:84,1165"/></g><g id="a59751c8-e81a-4d88-947f-754a0c926d9e" data-name="Group 665"><path id="ab794be6-b78e-4f61-b2ad-10521ded162a" data-name="Rectangle 10" d="M124,132H265a2,2,0,0,1,2,2v11a2,2,0,0,1-2,2H124V132Z" transform="translate(-124 -128.72)" style="fill:#008b87"/><path id="a8555136-9067-42fa-8e90-935daf285a79" data-name="Rectangle 318" d="M124,192h87a2,2,0,0,1,2,2v11a2,2,0,0,1-2,2H124V192Z" transform="translate(-124 -128.72)" style="fill:#008b87"/><path id="eaddb849-918d-4097-8d21-f5963819f332" data-name="Rectangle 11" d="M124,162H249a2,2,0,0,1,2,2v11a2,2,0,0,1-2,2H124V162Z" transform="translate(-124 -128.72)" style="fill:#008b87"/><path id="e9502e82-a223-49c3-92f8-6a2456783319" data-name="Rectangle 320" d="M124,222h66a2,2,0,0,1,2,2v12a2,2,0,0,1-2,2H124V222Z" transform="translate(-124 -128.72)" style="fill:#008b87"/><path id="acdb087f-308a-49de-8543-8422414ca556" data-name="Rectangle 330" d="M124,253h40a2,2,0,0,1,2,2v12a2,2,0,0,1-2,2H124V253Z" transform="translate(-124 -128.72)" style="fill:#008b87"/></g></svg>
