<svg id="f5d0054a-b554-4142-98fc-3f7231aaac72" data-name="Layer 3" xmlns="http://www.w3.org/2000/svg" viewBox="0 0 474.81 143.69"><title>Report - TotalFoodwaste</title><g id="a6ad9e9e-0e2f-4297-84cd-6f753dcd69f4" data-name="Group 666"><path id="a7d6dfe1-460c-41c9-b01e-3a1c2e8655a4" data-name="Rectangle 10" d="M174,131H357a2,2,0,0,1,2,2v16a2,2,0,0,1-2,2H174V131Z" transform="translate(-70.6 -127.72)" style="fill:#ed8888"/><path id="a7a4920d-9219-4be7-a7af-767cc2e47f44" data-name="Rectangle 11" d="M174,171H309a2,2,0,0,1,2,2v15a2,2,0,0,1-2,2H174V171Z" transform="translate(-70.6 -127.72)" style="fill:#ed8888"/><path id="bbd85601-56a6-4cf2-bee1-ef091212012e" data-name="Rectangle 12" d="M174,210H324a2,2,0,0,1,2,2v16a2,2,0,0,1-2,2H174V210Z" transform="translate(-70.6 -127.72)" style="fill:#ed8888"/><path id="e2159c54-7969-4276-a9c7-166dbd3b750e" data-name="Rectangle 15" d="M174,249H287a2,2,0,0,1,2,2v16a2,2,0,0,1-2,2H174V249Z" transform="translate(-70.6 -127.72)" style="fill:#ed8888"/><rect id="b620a9c8-fa32-4dda-b0d8-867e12a5b53a" data-name="Rectangle 16" x="103.4" y="3.28" width="65" height="20" style="fill:#7172b1"/><rect id="b9526f74-05b6-4ce2-9257-a63e371679b1" data-name="Rectangle 23" x="103.4" y="43.28" width="47" height="19" style="fill:#7172b1"/><rect id="b6f4b761-5af0-4f76-80a8-1b6fb0841588" data-name="Rectangle 27" x="103.4" y="82.28" width="55" height="20" style="fill:#7172b1"/><rect id="a64c3a4d-e930-4ce9-b5ce-05dd8ab3676e" data-name="Rectangle 31" x="103.4" y="121.28" width="61" height="20" style="fill:#7172b1"/><rect id="f5e71265-0a44-43da-a1f5-bc108a7ed2a2" data-name="Rectangle 17" x="168.4" y="3.28" width="47" height="20" style="fill:#9adcdb"/><rect id="b6b353ef-9559-45b1-9fe4-b0ccd2cc9fed" data-name="Rectangle 22" x="150.4" y="43.28" width="36" height="19" style="fill:#9adcdb"/><rect id="b4ff9f3e-dca6-4f2b-ae3c-ae157273bbe7" data-name="Rectangle 26" x="158.4" y="82.28" width="39" height="20" style="fill:#9adcdb"/><rect id="b95f846c-5f34-4e8e-9506-746cfcf433a3" data-name="Rectangle 30" x="164.4" y="121.28" width="10" height="20" style="fill:#9adcdb"/></g><g id="f9c11888-c8fc-496f-b905-1755e36e1972" data-name="Group 667"><path id="acb1c0cf-f6df-4fc9-858a-fcb5b09e0956" data-name="Path 410" d="M501.56,246.15a54.36,54.36,0,1,1,25.68-38.09A54.35,54.35,0,0,1,501.56,246.15Z" transform="translate(-70.6 -127.72)" style="fill:none;stroke:#9adcdb;stroke-width:35.0000000525065px;stroke-dasharray:117,1125"/><path id="aeef2ee0-36f5-43cf-be50-f15a6e4338da" data-name="Path 4" d="M473.71,145.26a54.18,54.18,0,0,1,26.9,101.21" transform="translate(-70.6 -127.72)" style="fill:none;stroke:#7172b1;stroke-width:35px"/><path id="ed55ae17-9b0c-4ea7-a90a-28b1e638fe08" data-name="Path 409" d="M419.26,197.67A54.34,54.34,0,1,1,437.21,240,54.33,54.33,0,0,1,419.26,197.67Z" transform="translate(-70.6 -127.72)" style="fill:none;stroke:#ed8888;stroke-width:35.00000047119px;stroke-dasharray:84,1165"/></g><g id="af6a54c3-6791-4a77-8fc5-10c641390c3b" data-name=" " style="isolation:isolate"><g style="isolation:isolate"><path d="M91.94,213.58a16.34,16.34,0,0,1-8.84,2.3,16.32,16.32,0,0,1-8.84-2.3q-3.66-2.29-3.66-5.52V208a4.88,4.88,0,0,1,.49-1.9q.48-1.12,3.41-7l4.4-8.79a4.74,4.74,0,0,1,8.4,0q2,3.9,4.49,9.08c1.89,3.71,3,5.93,3.32,6.64a4.9,4.9,0,0,1,.49,2v.1Q95.6,211.29,91.94,213.58ZM83.1,192.44l-7,14.06H90.13ZM122.16,219a1.51,1.51,0,0,1,1.12.44,1.49,1.49,0,0,1,.44,1.12v3.13a1.49,1.49,0,0,1-.44,1.12,1.51,1.51,0,0,1-1.12.44H81.54a1.55,1.55,0,0,1-1.13-.44,1.53,1.53,0,0,1-.44-1.12v-3.13a1.53,1.53,0,0,1,.44-1.12,1.55,1.55,0,0,1,1.13-.44H98.72V190.19a7.19,7.19,0,0,1-4.49-5.57H81.54A1.49,1.49,0,0,1,80,183.06v-3.12a1.49,1.49,0,0,1,1.57-1.56H95.6a7.81,7.81,0,0,1,12.5,0h14.06a1.49,1.49,0,0,1,1.56,1.56v3.12a1.49,1.49,0,0,1-1.56,1.56h-12.7a7.17,7.17,0,0,1-4.49,5.57V219Zm9.28-7a11.1,11.1,0,0,1-4.54,2.83,18.75,18.75,0,0,1-6.3,1,16.32,16.32,0,0,1-8.84-2.3q-3.66-2.29-3.66-5.52V208a4.88,4.88,0,0,1,.49-1.9q.48-1.12,3.41-7l.74-1.47c.16-.32.42-.83.78-1.51l.93-1.81c.25-.52.56-1.14.92-1.85s.7-1.43,1-2.15a4.74,4.74,0,0,1,8.4,0q2,3.9,4.49,9.08c1.89,3.71,3,5.93,3.32,6.64a4.9,4.9,0,0,1,.49,2v.1A5.77,5.77,0,0,1,131.44,212Zm-17.87-5.52h14.06l-7-14.06Z" transform="translate(-70.6 -127.72)" style="fill:#333"/></g></g></svg>