<svg preserveAspectRatio="xMinYMin meet" id="f7fa1a7f-21a0-4c4d-a0ae-618c3c681a33" data-name="Layer 2" xmlns="http://www.w3.org/2000/svg" viewBox="0 0 460.41 143.69"><title>report - quick overview</title><g id="bdc524f1-95c1-4d06-8f27-c303356cd5c9" data-name="Group 758"><path id="a5eae325-0832-4962-b80b-20b0b354323f" data-name="Path 516" d="M332.59,190.13h-264" transform="translate(-68.59 -124.85)" style="fill:none;stroke:#e5e5e5;stroke-width:2px;stroke-dasharray:4,0"/><line id="e212a259-1ee5-4d33-a81a-9fb2310f66e9" data-name="Line 339" x1="264" y1="110.28" y2="110.28" style="fill:none;stroke:#bfbfbf"/><path id="bb9bde64-4d91-457c-b042-aa2963a53e03" data-name="Path 408" d="M68.8,195.35H90.66l18.91-23.49H127.1l17.57,12,18.09-12H180.9l16.76-12.26,17.07,6.34,18.41,12.43,17.38-12.43,18.48,18,17.62-24.3,17.9,11.77,18-11.77" transform="translate(-68.59 -124.85)" style="fill:none;stroke:#2196f4;stroke-width:2px"/><g id="aa11123e-6c90-4e00-96c2-4493d8d19c8d" data-name="Group 134"><g id="ffc1d72e-6028-4340-b2c9-48ff4c9c758e" data-name="Tiney green circle"><g id="a0c02771-175c-43f2-a777-8cfe34ad8c76" data-name="Ellipse 10"><circle cx="21.5" cy="70.78" r="1.5" style="fill:#fff"/><circle cx="21.5" cy="70.78" r="0.5" style="fill:none;stroke:#2196f4;stroke-width:2px"/></g></g><g id="bfc4207c-d28e-46eb-bb1b-b0747b4e7664" data-name="Tiney green circle-2"><g id="f83e3634-1131-4ebd-9a69-7dc7d07ae111" data-name="Ellipse 10-2"><circle cx="41.41" cy="46.78" r="1.5" style="fill:#fff"/><circle cx="41.41" cy="46.78" r="0.5" style="fill:none;stroke:#2196f4;stroke-width:2px"/></g></g><g id="e6561e47-8d98-432c-8adc-dd1f1f54de86" data-name="Tiney green circle-3"><g id="a22fdb10-232a-4305-a6a9-1680f2e71353" data-name="Ellipse 10-3"><circle cx="58.5" cy="46.78" r="1.5" style="fill:#fff"/><circle cx="58.5" cy="46.78" r="0.5" style="fill:none;stroke:#2196f4;stroke-width:2px"/></g></g><g id="a54d67ff-f05d-481a-b1dc-094e5ca449d0" data-name="Tiney green circle-4"><g id="ab75b38c-f8a2-42b7-8370-be724cd33054" data-name="Ellipse 10-4"><circle cx="76.5" cy="58.78" r="1.5" style="fill:#fff"/><circle cx="76.5" cy="58.78" r="0.5" style="fill:none;stroke:#2196f4;stroke-width:2px"/></g></g><g id="b5b7c535-284a-47bf-8af2-76f183c907ec" data-name="Tiney green circle-5"><g id="ba8670ad-0c8f-440c-aa1c-ff53b3fb1a3f" data-name="Ellipse 10-5"><circle cx="94.5" cy="46.78" r="1.5" style="fill:#fff"/><circle cx="94.5" cy="46.78" r="0.5" style="fill:none;stroke:#2196f4;stroke-width:2px"/></g></g><g id="b21a7e09-5d18-47d9-9be9-a1d792c2bf61" data-name="Tiney green circle-6"><g id="ae666860-5a4a-4e87-916a-9285b8efb7e1" data-name="Ellipse 10-6"><circle cx="112.5" cy="46.78" r="1.5" style="fill:#fff"/><circle cx="112.5" cy="46.78" r="0.5" style="fill:none;stroke:#2196f4;stroke-width:2px"/></g></g><g id="fa4d62ca-c275-49de-b89b-2d2ad823241b" data-name="Tiney green circle-7"><g id="b91c9df1-0da3-446a-bb0f-660969b9ad54" data-name="Ellipse 10-7"><circle cx="129.5" cy="34.78" r="1.5" style="fill:#fff"/><circle cx="129.5" cy="34.78" r="0.5" style="fill:none;stroke:#2196f4;stroke-width:2px"/></g></g><g id="b914deb8-ff2d-42f6-95ec-c78644fd6d62" data-name="Tiney green circle-8"><g id="b9c36f6d-05bd-4170-801f-2fadd9e0d7a6" data-name="Ellipse 10-8"><circle cx="146.41" cy="41.15" r="1.5" style="fill:#fff"/><circle cx="146.41" cy="41.15" r="0.5" style="fill:none;stroke:#2196f4;stroke-width:2px"/></g></g><g id="b015ed1c-772d-4e93-bfc6-3d6aba645019" data-name="Tiney green circle-9"><g id="b2c123df-1962-4f7b-be21-7ab6160f8277" data-name="Ellipse 10-9"><circle cx="164.5" cy="53.78" r="1.5" style="fill:#fff"/><circle cx="164.5" cy="53.78" r="0.5" style="fill:none;stroke:#2196f4;stroke-width:2px"/></g></g><g id="e30f6dc0-5bce-49a9-acaa-48ab75598ed4" data-name="Tiney green circle-10"><g id="e745d39c-d4d5-4a8a-8658-31f2bbfdb801" data-name="Ellipse 10-10"><circle cx="181.91" cy="40.98" r="1.5" style="fill:#fff"/><circle cx="181.91" cy="40.98" r="0.5" style="fill:none;stroke:#2196f4;stroke-width:2px"/></g></g><g id="a02e0ab7-0e76-4750-b3eb-d07d41b89a66" data-name="Tiney green circle-11"><g id="a63e6a1b-96be-4c5c-a364-41db8ab98524" data-name="Ellipse 10-11"><circle cx="200.5" cy="58.78" r="1.5" style="fill:#fff"/><circle cx="200.5" cy="58.78" r="0.5" style="fill:none;stroke:#2196f4;stroke-width:2px"/></g></g><g id="bec24112-b370-4441-af54-41dd0651a006" data-name="Tiney green circle-12"><g id="b6c61e30-c275-4104-af28-d594c0b86da4" data-name="Ellipse 10-12"><circle cx="218.01" cy="34.65" r="1.5" style="fill:#fff"/><circle cx="218.01" cy="34.65" r="0.5" style="fill:none;stroke:#2196f4;stroke-width:2px"/></g></g><g id="a3f58e92-6d69-4414-94f7-8b70eaa9a56c" data-name="Tiney green circle-13"><g id="f765cd7d-4fea-4323-b456-408fd69556fc" data-name="Ellipse 10-13"><circle cx="235.91" cy="46.15" r="1.5" style="fill:#fff"/><circle cx="235.91" cy="46.15" r="0.5" style="fill:none;stroke:#2196f4;stroke-width:2px"/></g></g><g id="b1277a69-94a8-4fcd-9192-1f304680159d" data-name="Tiney green circle-14"><g id="bb7888ae-c3f7-4ad0-abb8-9e04e752a20c" data-name="Ellipse 10-14"><circle cx="253.41" cy="35.15" r="1.5" style="fill:#fff"/><circle cx="253.41" cy="35.15" r="0.5" style="fill:none;stroke:#2196f4;stroke-width:2px"/></g></g></g></g><g id="a31905fb-6b77-4f93-acd8-eb3da034caa7" data-name="Group 759"><path id="f9764116-604f-4dd7-8b9e-9151d4bc85d5" data-name="Path 410" d="M485.15,243.28a54.35,54.35,0,1,1,25.69-38.09A54.34,54.34,0,0,1,485.15,243.28Z" transform="translate(-68.59 -124.85)" style="fill:none;stroke:#9adcdb;stroke-width:35.0000000525065px;stroke-dasharray:117,1125"/><path id="b53db2c4-6ef5-4bf1-947a-905594638ac7" data-name="Path 4" d="M457.31,142.39a54.18,54.18,0,0,1,26.9,101.21" transform="translate(-68.59 -124.85)" style="fill:none;stroke:#7172b1;stroke-width:35px"/><path id="e41e0506-a770-4c18-b175-e0399289aa96" data-name="Path 409" d="M402.85,194.8a54.34,54.34,0,1,1,17.95,42.29A54.34,54.34,0,0,1,402.85,194.8Z" transform="translate(-68.59 -124.85)" style="fill:none;stroke:#ed8888;stroke-width:35.00000047119px;stroke-dasharray:84,1165"/></g></svg>
