<svg id="bf5f8332-bdaf-4e97-b192-fed1b896a56c" data-name="Layer 6" xmlns="http://www.w3.org/2000/svg" viewBox="0 0 460.41 143.69"><title>Report - icons</title><g id="bafdf050-51f0-4f5f-a214-41ce88a24747" data-name="Group 138"><line id="f853b03f-675b-4415-808c-d30954caef04" data-name="Line 339" x1="264" y1="111.28" y2="111.28" style="fill:none;stroke:#bfbfbf"/><path id="bb7c47de-44cb-44ae-8343-fbe4eb0dff24" data-name="Path 408" d="M68.24,195.25H90.09L109,171.76h17.53l17.58,12.05,18.08-12.05h18.14l16.76-12.25,17.07,6.34,18.41,12.43L250,165.85l18.48,18,17.62-24.3L304,171.28l18-11.77" transform="translate(-68.03 -123.76)" style="fill:none;stroke:#89c045;stroke-width:2px"/><line id="fb5861bf-ebea-49b9-870a-0d0e2dbe458d" data-name="Line 344" x1="264" y1="66.28" y2="66.28" style="fill:none;stroke:#89c045;stroke-width:2px;stroke-dasharray:4"/><g id="a68a6360-303b-4ff9-a9a2-73262b5b231a" data-name="Group 134"><g id="b8e179b6-6c36-40eb-afc8-50397996c3dc" data-name="Tiney green circle"><g id="e92be06d-b6e4-4aca-818d-7516e4f9503a" data-name="Ellipse 10"><circle cx="21.47" cy="71.74" r="1.5" style="fill:#fff"/><circle cx="21.47" cy="71.74" r="0.5" style="fill:none;stroke:#89c045;stroke-width:2px"/></g></g><g id="bd664cdf-4b31-47f2-bb2d-3f896ce5f13d" data-name="Tiney green circle-2"><g id="b92f8d9b-54ba-4bf7-b2ff-5834dc76dca8" data-name="Ellipse 10-2"><circle cx="40.97" cy="47.78" r="1.5" style="fill:#fff"/><circle cx="40.97" cy="47.78" r="0.5" style="fill:none;stroke:#89c045;stroke-width:2px"/></g></g><g id="b74b1d8d-35d2-4fd4-a1ee-bdab8328581b" data-name="Tiney green circle-3"><g id="b1f67b1a-1587-4e96-81cb-048505ddb836" data-name="Ellipse 10-3"><circle cx="58.5" cy="47.78" r="1.5" style="fill:#fff"/><circle cx="58.5" cy="47.78" r="0.5" style="fill:none;stroke:#89c045;stroke-width:2px"/></g></g><g id="a409ac72-0ae0-4eb7-baa0-448ef782030a" data-name="Tiney green circle-4"><g id="a7645acf-ade4-41e1-bfc5-06cae4249063" data-name="Ellipse 10-4"><circle cx="75.97" cy="59.78" r="1.5" style="fill:#fff"/><circle cx="75.97" cy="59.78" r="0.5" style="fill:none;stroke:#89c045;stroke-width:2px"/></g></g><g id="b939c5dc-e4b4-4a3a-9a14-1aa8a9d3f8cb" data-name="Tiney green circle-5"><g id="ee572c0b-02ac-4144-8b2a-d4fe842d7321" data-name="Ellipse 10-5"><circle cx="94.5" cy="47.78" r="1.5" style="fill:#fff"/><circle cx="94.5" cy="47.78" r="0.5" style="fill:none;stroke:#89c045;stroke-width:2px"/></g></g><g id="f44ebfd9-e806-4d51-b04d-0b9fe5762b68" data-name="Tiney green circle-6"><g id="a79745ac-93e6-436d-a402-7de5042d42c2" data-name="Ellipse 10-6"><circle cx="112.5" cy="47.78" r="1.5" style="fill:#fff"/><circle cx="112.5" cy="47.78" r="0.5" style="fill:none;stroke:#89c045;stroke-width:2px"/></g></g><g id="a56e5894-0422-4ec2-a031-d83408c9425e" data-name="Tiney green circle-7"><g id="bfac0c0e-1e94-4570-8d63-fb23694d5ee1" data-name="Ellipse 10-7"><circle cx="129.5" cy="35.78" r="1.5" style="fill:#fff"/><circle cx="129.5" cy="35.78" r="0.5" style="fill:none;stroke:#89c045;stroke-width:2px"/></g></g><g id="e8763e9a-c440-4a90-b341-29228f0faad6" data-name="Tiney green circle-8"><g id="a6e8a1eb-be0d-4d2f-8410-c9b6ebcfcb40" data-name="Ellipse 10-8"><circle cx="146.5" cy="42.24" r="1.5" style="fill:#fff"/><circle cx="146.5" cy="42.24" r="0.5" style="fill:none;stroke:#89c045;stroke-width:2px"/></g></g><g id="bf88c1df-94d2-467d-94ed-840677165293" data-name="Tiney green circle-9"><g id="e96fe839-75ba-4758-b490-9d7e75defb64" data-name="Ellipse 10-9"><circle cx="164.5" cy="54.24" r="1.5" style="fill:#fff"/><circle cx="164.5" cy="54.24" r="0.5" style="fill:none;stroke:#89c045;stroke-width:2px"/></g></g><g id="ece3cfd1-6394-42c4-bf02-66a06b1d8371" data-name="Tiney green circle-10"><g id="b157aacd-a23c-44ee-8c75-cdacc820c9e5" data-name="Ellipse 10-10"><circle cx="181.97" cy="42.24" r="1.5" style="fill:#fff"/><circle cx="181.97" cy="42.24" r="0.5" style="fill:none;stroke:#89c045;stroke-width:2px"/></g></g><g id="e211b117-b286-48f6-9d93-e05fe8805470" data-name="Tiney green circle-11"><g id="afca65a4-3bb4-4286-b8a2-6c56699cd327" data-name="Ellipse 10-11"><circle cx="200.5" cy="60.24" r="1.5" style="fill:#fff"/><circle cx="200.5" cy="60.24" r="0.5" style="fill:none;stroke:#89c045;stroke-width:2px"/></g></g><g id="b333064d-dca1-4f23-ad49-a91b2229ed21" data-name="Tiney green circle-12"><g id="a0aebbf6-b901-4b25-ab08-0e8a5e2a4786" data-name="Ellipse 10-12"><circle cx="217.97" cy="35.74" r="1.5" style="fill:#fff"/><circle cx="217.97" cy="35.74" r="0.5" style="fill:none;stroke:#89c045;stroke-width:2px"/></g></g><g id="a5ff9eeb-f609-4cf5-a67b-7bd6c8882016" data-name="Tiney green circle-13"><g id="e1ffe7df-ab0f-4198-bae2-9ce38be2c397" data-name="Ellipse 10-13"><circle cx="235.97" cy="47.24" r="1.5" style="fill:#fff"/><circle cx="235.97" cy="47.24" r="0.5" style="fill:none;stroke:#89c045;stroke-width:2px"/></g></g><g id="ba4506f6-686b-4fde-bbca-cb406c965bc5" data-name="Tiney green circle-14"><g id="ab361f64-9d19-4fc3-8728-254b09370c7f" data-name="Ellipse 10-14"><circle cx="253.5" cy="36.24" r="1.5" style="fill:#fff"/><circle cx="253.5" cy="36.24" r="0.5" style="fill:none;stroke:#89c045;stroke-width:2px"/></g></g></g></g><g id="a6fdff63-348b-4726-b069-0a1db79a18cc" data-name="Group 147"><path id="aa273c12-b66b-41bc-8077-b2c19311d6d4" data-name="Path 410" d="M484.58,242.19a54.35,54.35,0,1,1,25.69-38.09A54.34,54.34,0,0,1,484.58,242.19Z" transform="translate(-68.03 -123.76)" style="fill:none;stroke:#9adcdb;stroke-width:35.0000000525065px;stroke-dasharray:117,1125"/><path id="a7a92cff-31d0-45ba-9403-76c7314e407e" data-name="Path 4" d="M456.74,141.3a54.18,54.18,0,0,1,26.9,101.21" transform="translate(-68.03 -123.76)" style="fill:none;stroke:#7172b1;stroke-width:35px"/><path id="b5f1164a-35f5-42e8-85ae-6b0139c084b5" data-name="Path 409" d="M402.28,193.71a54.34,54.34,0,1,1,18,42.29A54.35,54.35,0,0,1,402.28,193.71Z" transform="translate(-68.03 -123.76)" style="fill:none;stroke:#ed8888;stroke-width:35.00000047119px;stroke-dasharray:84,1165"/></g></svg>