<svg id="a2e5e7c0-7a85-4474-827b-b89d52c38460" data-name="Layer 4" xmlns="http://www.w3.org/2000/svg" viewBox="0 0 474.41 143.69"><title>Report - PerGuest</title><g id="afe115ab-4bc1-4815-b048-66f2dc0fce26" data-name="Group 668"><path id="a3ce89d5-57aa-4934-8b60-5cdb418dceed" data-name="Rectangle 10" d="M174,131H357a2,2,0,0,1,2,2v16a2,2,0,0,1-2,2H174V131Z" transform="translate(-71 -127.72)" style="fill:#ed8888"/><path id="b32a7bc2-0b56-4e46-8ae1-a6a43a55b28d" data-name="Rectangle 11" d="M174,171H309a2,2,0,0,1,2,2v15a2,2,0,0,1-2,2H174V171Z" transform="translate(-71 -127.72)" style="fill:#ed8888"/><path id="a4dd24ba-50f4-4504-8e6e-59ee29991d21" data-name="Rectangle 12" d="M174,210H324a2,2,0,0,1,2,2v16a2,2,0,0,1-2,2H174V210Z" transform="translate(-71 -127.72)" style="fill:#ed8888"/><path id="a4ff0a68-345e-47ad-b400-0491050547e8" data-name="Rectangle 15" d="M174,249H287a2,2,0,0,1,2,2v16a2,2,0,0,1-2,2H174V249Z" transform="translate(-71 -127.72)" style="fill:#ed8888"/><rect id="ab1030fc-9248-498c-8250-814a07b4522a" data-name="Rectangle 16" x="103" y="3.28" width="65" height="20" style="fill:#7172b1"/><rect id="bb9c221d-2ee1-4bb6-b8f6-cb48856b2abc" data-name="Rectangle 23" x="103" y="43.28" width="47" height="19" style="fill:#7172b1"/><rect id="a4bdc769-d4ad-4464-a597-e341bd7d7b5c" data-name="Rectangle 27" x="103" y="82.28" width="55" height="20" style="fill:#7172b1"/><rect id="b69e9eb5-7dfa-4e20-aec2-b11ebf35e084" data-name="Rectangle 31" x="103" y="121.28" width="61" height="20" style="fill:#7172b1"/><rect id="b2328e87-6aa8-41b2-8a71-8ce83f114abf" data-name="Rectangle 17" x="168" y="3.28" width="47" height="20" style="fill:#9adcdb"/><rect id="b5eaa244-36f1-470b-a4c6-b9f460e09d47" data-name="Rectangle 22" x="150" y="43.28" width="36" height="19" style="fill:#9adcdb"/><rect id="fbe5c5a8-e5e3-4fd8-bfe4-e35d8bce990e" data-name="Rectangle 26" x="158" y="82.28" width="39" height="20" style="fill:#9adcdb"/><rect id="ad5b385e-1ba8-4761-aa7e-66b448e49d37" data-name="Rectangle 30" x="164" y="121.28" width="10" height="20" style="fill:#9adcdb"/></g><g id="b4c2dbf0-9539-4772-ba20-82eb720ae42f" data-name="Group 669"><path id="a8d217d7-b288-4898-9a59-744a674e8f33" data-name="Path 410" d="M501.56,246.15a54.36,54.36,0,1,1,25.68-38.09A54.35,54.35,0,0,1,501.56,246.15Z" transform="translate(-71 -127.72)" style="fill:none;stroke:#9adcdb;stroke-width:35.0000000525065px;stroke-dasharray:117,1125"/><path id="bd7267e1-81e5-4fcb-8244-cfcb8f3e8db9" data-name="Path 4" d="M473.71,145.26a54.18,54.18,0,0,1,26.9,101.21" transform="translate(-71 -127.72)" style="fill:none;stroke:#7172b1;stroke-width:35px"/><path id="a06fec21-3f49-4423-ba4a-3e3ae4c83edc" data-name="Path 409" d="M419.26,197.67A54.34,54.34,0,1,1,437.21,240,54.33,54.33,0,0,1,419.26,197.67Z" transform="translate(-71 -127.72)" style="fill:none;stroke:#ed8888;stroke-width:35.00000047119px;stroke-dasharray:84,1165"/></g><g id="feb69caf-1105-4d31-ba11-4396c6a0ffe6" data-name=" " style="isolation:isolate"><g style="isolation:isolate"><path d="M87.89,202.11A13.66,13.66,0,0,0,83,206.5a14.55,14.55,0,0,0-2.44,6.25H74.12A3.18,3.18,0,0,1,71,209.62V206.5a6.35,6.35,0,0,1,6.25-6.25H83.5A6,6,0,0,1,87.89,202.11Zm-3.12-6.84a6.15,6.15,0,1,1,1.85-4.39A6,6,0,0,1,84.77,195.27Zm25,8.11A11.17,11.17,0,0,1,121,214.61v2.83a4.66,4.66,0,0,1-4.69,4.68H88.19a4.66,4.66,0,0,1-4.69-4.68v-2.83a11.17,11.17,0,0,1,11.23-11.23h.88a14.91,14.91,0,0,0,13.28,0ZM110,197a10.83,10.83,0,1,1,3.23-7.72A10.5,10.5,0,0,1,110,197Zm17.29,3.22a6.35,6.35,0,0,1,6.25,6.25v3.12a3.18,3.18,0,0,1-3.12,3.13h-6.45a14.39,14.39,0,0,0-1.27-4.3,13.87,13.87,0,0,0-2.54-3.66,14.73,14.73,0,0,0-3.51-2.68,6,6,0,0,1,4.39-1.86Zm1.27-5a6.12,6.12,0,1,1,1.86-4.39A6,6,0,0,1,128.52,195.27Z" transform="translate(-71 -127.72)" style="fill:#333"/></g></g></svg>