<svg id="bf2dde8a-8709-4778-b146-23289cfd0de8" data-name="Layer 5" xmlns="http://www.w3.org/2000/svg" viewBox="0 0 442.22 137"><title>Report - frequency</title><g id="e19db553-bdf0-43c7-ad03-49d8a575fe20" data-name="Group 663"><path id="f685d793-5e05-4039-9754-a36fbfdf54df" data-name="Rectangle 10" d="M78.89,131.5h141a2,2,0,0,1,2,2v11a2,2,0,0,1-2,2h-141v-15Z" transform="translate(-78.89 -131.5)" style="fill:#2196f4"/><path id="b47dd2c7-800b-49d3-99c4-b625dd7d9b2b" data-name="Rectangle 318" d="M78.89,191.5h87a2,2,0,0,1,2,2v11a2,2,0,0,1-2,2h-87v-15Z" transform="translate(-78.89 -131.5)" style="fill:#2196f4"/><path id="a0f591f5-704c-446e-8f56-3eab340b7e6f" data-name="Rectangle 11" d="M78.89,161.5h125a2,2,0,0,1,2,2v11a2,2,0,0,1-2,2h-125v-15Z" transform="translate(-78.89 -131.5)" style="fill:#2196f4"/><path id="b927a15c-0d5f-4d70-8e04-2e9bd042ae71" data-name="Rectangle 320" d="M78.89,221.5h66a2,2,0,0,1,2,2v12a2,2,0,0,1-2,2h-66v-16Z" transform="translate(-78.89 -131.5)" style="fill:#2196f4"/><path id="e060fbb9-3041-4e6c-9b6a-e22352bde848" data-name="Rectangle 330" d="M78.89,252.5h40a2,2,0,0,1,2,2v12a2,2,0,0,1-2,2h-40v-16Z" transform="translate(-78.89 -131.5)" style="fill:#2196f4"/></g><g id="b3e4a877-0a1b-4ace-88b1-d1673ee6a6f9" data-name="Group 758"><path id="f0d7aec8-3cdd-44bc-a83a-1de1b3703807" data-name="Path 516" d="M521.11,193.57h-264" transform="translate(-78.89 -131.5)" style="fill:none;stroke:#e5e5e5;stroke-width:2px;stroke-dasharray:4,0"/><line id="b6df6c93-e1c1-498c-859d-ac761f122dc5" data-name="Line 339" x1="442.22" y1="107.07" x2="178.22" y2="107.07" style="fill:none;stroke:#bfbfbf"/><path id="b58c2721-74c7-4908-9c36-31252471bbb6" data-name="Path 408" d="M257.32,198.78h21.85l18.92-23.49h17.53l17.57,12,18.09-12h18.13L386.18,163l17.07,6.34,18.41,12.44L439,169.37l18.48,18L475.14,163,493,174.81,511,163" transform="translate(-78.89 -131.5)" style="fill:none;stroke:#2196f4;stroke-width:2px"/><g id="ec784b18-40c0-4fa4-b969-379aa8e24528" data-name="Group 134"><g id="a1dcc6aa-eaf6-477c-b67c-c3680b372ac8" data-name="Tiney green circle"><g id="b9659798-6a7b-4bf7-b73c-e6ff1dfccbb9" data-name="Ellipse 10"><circle cx="199.72" cy="67.57" r="1.5" style="fill:#fff"/><circle cx="199.72" cy="67.57" r="0.5" style="fill:none;stroke:#2196f4;stroke-width:2px"/></g></g><g id="ac95700d-6df5-4e37-9e0f-8a9392bebdda" data-name="Tiney green circle-2"><g id="bdae19ed-86f2-413b-8184-9ab361075566" data-name="Ellipse 10-2"><circle cx="219.63" cy="43.57" r="1.5" style="fill:#fff"/><circle cx="219.63" cy="43.57" r="0.5" style="fill:none;stroke:#2196f4;stroke-width:2px"/></g></g><g id="a61861b6-c7b3-4917-823d-4cf01c5e0588" data-name="Tiney green circle-3"><g id="b6d928ca-4c2b-45f6-a7cc-1ca79131aae8" data-name="Ellipse 10-3"><circle cx="236.72" cy="43.57" r="1.5" style="fill:#fff"/><circle cx="236.72" cy="43.57" r="0.5" style="fill:none;stroke:#2196f4;stroke-width:2px"/></g></g><g id="a2d34c44-2e2c-46f4-90dc-d445264e5944" data-name="Tiney green circle-4"><g id="bded296d-0c01-4c81-912d-a144f5474f3c" data-name="Ellipse 10-4"><circle cx="254.72" cy="55.57" r="1.5" style="fill:#fff"/><circle cx="254.72" cy="55.57" r="0.5" style="fill:none;stroke:#2196f4;stroke-width:2px"/></g></g><g id="a821f876-f976-4014-b253-6e85c3cb02fb" data-name="Tiney green circle-5"><g id="aa412b9c-cf32-49c0-88c2-da4d6089c18b" data-name="Ellipse 10-5"><circle cx="272.72" cy="43.57" r="1.5" style="fill:#fff"/><circle cx="272.72" cy="43.57" r="0.5" style="fill:none;stroke:#2196f4;stroke-width:2px"/></g></g><g id="f1db0faa-bb36-44b6-8919-86b0329eb4a4" data-name="Tiney green circle-6"><g id="f0401ab3-3882-4042-beea-ecd48135f8f4" data-name="Ellipse 10-6"><circle cx="290.72" cy="43.57" r="1.5" style="fill:#fff"/><circle cx="290.72" cy="43.57" r="0.5" style="fill:none;stroke:#2196f4;stroke-width:2px"/></g></g><g id="f3e5c447-8ed5-48d5-814c-db556557b455" data-name="Tiney green circle-7"><g id="a51ce25a-16bd-4569-9ae0-c8693676fe1f" data-name="Ellipse 10-7"><circle cx="307.72" cy="31.57" r="1.5" style="fill:#fff"/><circle cx="307.72" cy="31.57" r="0.5" style="fill:none;stroke:#2196f4;stroke-width:2px"/></g></g><g id="a0235988-fc59-4ead-b4e9-f531f3a76d2d" data-name="Tiney green circle-8"><g id="a259bf84-232a-4f16-b6d2-f907bb11a79d" data-name="Ellipse 10-8"><circle cx="324.63" cy="37.93" r="1.5" style="fill:#fff"/><circle cx="324.63" cy="37.93" r="0.5" style="fill:none;stroke:#2196f4;stroke-width:2px"/></g></g><g id="ae384db0-3adf-4bc6-8f4b-a3df66fda121" data-name="Tiney green circle-9"><g id="bb325b03-635f-4870-b862-0784a6b0167c" data-name="Ellipse 10-9"><circle cx="342.72" cy="50.57" r="1.5" style="fill:#fff"/><circle cx="342.72" cy="50.57" r="0.5" style="fill:none;stroke:#2196f4;stroke-width:2px"/></g></g><g id="ed0a5e10-c6e0-4396-9743-5e4c303de4d3" data-name="Tiney green circle-10"><g id="bbc3c547-5374-4c5d-ad4e-10ff4041aea0" data-name="Ellipse 10-10"><circle cx="360.13" cy="37.76" r="1.5" style="fill:#fff"/><circle cx="360.13" cy="37.76" r="0.5" style="fill:none;stroke:#2196f4;stroke-width:2px"/></g></g><g id="a978a70d-1915-4978-91eb-2db11c0ed694" data-name="Tiney green circle-11"><g id="bcdbe6ab-fee6-429f-9647-0efe61617773" data-name="Ellipse 10-11"><circle cx="378.72" cy="55.57" r="1.5" style="fill:#fff"/><circle cx="378.72" cy="55.57" r="0.5" style="fill:none;stroke:#2196f4;stroke-width:2px"/></g></g><g id="ab72ca30-33c3-498b-b791-fb533ba09977" data-name="Tiney green circle-12"><g id="b461f528-2522-4fa0-8043-973258de9a23" data-name="Ellipse 10-12"><circle cx="396.23" cy="31.43" r="1.5" style="fill:#fff"/><circle cx="396.23" cy="31.43" r="0.5" style="fill:none;stroke:#2196f4;stroke-width:2px"/></g></g><g id="b4ab84d2-bc52-4bb7-9530-09b572c68396" data-name="Tiney green circle-13"><g id="a201e529-2732-42ee-a314-873c17622b37" data-name="Ellipse 10-13"><circle cx="414.13" cy="42.93" r="1.5" style="fill:#fff"/><circle cx="414.13" cy="42.93" r="0.5" style="fill:none;stroke:#2196f4;stroke-width:2px"/></g></g><g id="ba2cc548-b485-40d5-8d9b-b29655d8560b" data-name="Tiney green circle-14"><g id="b8b974ca-a42c-4281-93c8-7933fe2b1b50" data-name="Ellipse 10-14"><circle cx="431.63" cy="31.93" r="1.5" style="fill:#fff"/><circle cx="431.63" cy="31.93" r="0.5" style="fill:none;stroke:#2196f4;stroke-width:2px"/></g></g></g></g></svg>